TITLE ""
FILE "P1Q_t_0001-0009.mp3" MP3
  TRACK 01 AUDIO
    TITLE "P1Q_t_0001-0009_01"
    INDEX 01 00:00:00
  TRACK 02 AUDIO
    TITLE "P1Q_t_0001-0009_02"
    INDEX 01 00:03:26
  TRACK 03 AUDIO
    TITLE "P1Q_t_0001-0009_03"
    INDEX 01 00:04:36
  TRACK 04 AUDIO
    TITLE "P1Q_t_0001-0009_04"
    INDEX 01 00:05:57
  TRACK 05 AUDIO
    TITLE "P1Q_t_0001-0009_05"
    INDEX 01 00:09:13
  TRACK 06 AUDIO
    TITLE "P1Q_t_0001-0009_06"
    INDEX 01 00:09:62
  TRACK 07 AUDIO
    TITLE "P1Q_t_0001-0009_07"
    INDEX 01 00:11:26
  TRACK 08 AUDIO
    TITLE "P1Q_t_0001-0009_08"
    INDEX 01 00:12:00
  TRACK 09 AUDIO
    TITLE "P1Q_t_0001-0009_09"
    INDEX 01 00:13:07
  TRACK 10 AUDIO
    TITLE "P1Q_t_0001-0009_10"
    INDEX 01 00:13:52
  TRACK 11 AUDIO
    TITLE "P1Q_t_0001-0009_11"
    INDEX 01 00:14:63
  TRACK 12 AUDIO
    TITLE "P1Q_t_0001-0009_12"
    INDEX 01 00:15:18
  TRACK 13 AUDIO
    TITLE "P1Q_t_0001-0009_13"
    INDEX 01 00:23:07
  TRACK 14 AUDIO
    TITLE "P1Q_t_0001-0009_14"
    INDEX 01 00:23:27
  TRACK 15 AUDIO
    TITLE "P1Q_t_0001-0009_15"
    INDEX 01 00:28:01
  TRACK 16 AUDIO
    TITLE "P1Q_t_0001-0009_16"
    INDEX 01 00:28:46
  TRACK 17 AUDIO
    TITLE "P1Q_t_0001-0009_17"
    INDEX 01 00:29:59
  TRACK 18 AUDIO
    TITLE "P1Q_t_0001-0009_18"
    INDEX 01 00:30:06
  TRACK 19 AUDIO
    TITLE "P1Q_t_0001-0009_19"
    INDEX 01 00:32:28
  TRACK 20 AUDIO
    TITLE "P1Q_t_0001-0009_20"
    INDEX 01 00:32:48
  TRACK 21 AUDIO
    TITLE "P1Q_t_0001-0009_21"
    INDEX 01 00:37:31
  TRACK 22 AUDIO
    TITLE "P1Q_t_0001-0009_22"
    INDEX 01 00:38:01
  TRACK 23 AUDIO
    TITLE "P1Q_t_0001-0009_23"
    INDEX 01 00:39:08
  TRACK 24 AUDIO
    TITLE "P1Q_t_0001-0009_24"
    INDEX 01 00:39:30
  TRACK 25 AUDIO
    TITLE "P1Q_t_0001-0009_25"
    INDEX 01 00:43:04
  TRACK 26 AUDIO
    TITLE "P1Q_t_0001-0009_26"
    INDEX 01 00:43:24
  TRACK 27 AUDIO
    TITLE "P1Q_t_0001-0009_27"
    INDEX 01 00:48:29
  TRACK 28 AUDIO
    TITLE "P1Q_t_0001-0009_28"
    INDEX 01 00:48:74
  TRACK 29 AUDIO
    TITLE "P1Q_t_0001-0009_29"
    INDEX 01 00:49:71
  TRACK 30 AUDIO
    TITLE "P1Q_t_0001-0009_30"
    INDEX 01 00:50:20
  TRACK 31 AUDIO
    TITLE "P1Q_t_0001-0009_31"
    INDEX 01 00:53:28
  TRACK 32 AUDIO
    TITLE "P1Q_t_0001-0009_32"
    INDEX 01 00:53:50
  TRACK 33 AUDIO
    TITLE "P1Q_t_0001-0009_33"
    INDEX 01 00:57:47
  TRACK 34 AUDIO
    TITLE "P1Q_t_0001-0009_34"
    INDEX 01 00:58:18
  TRACK 35 AUDIO
    TITLE "P1Q_t_0001-0009_35"
    INDEX 01 00:59:25
  TRACK 36 AUDIO
    TITLE "P1Q_t_0001-0009_36"
    INDEX 01 00:59:50
  TRACK 37 AUDIO
    TITLE "P1Q_t_0001-0009_37"
    INDEX 01 01:03:21
  TRACK 38 AUDIO
    TITLE "P1Q_t_0001-0009_38"
    INDEX 01 01:03:42
  TRACK 39 AUDIO
    TITLE "P1Q_t_0001-0009_39"
    INDEX 01 01:07:01
  TRACK 40 AUDIO
    TITLE "P1Q_t_0001-0009_40"
    INDEX 01 01:07:48
  TRACK 41 AUDIO
    TITLE "P1Q_t_0001-0009_41"
    INDEX 01 01:08:61
  TRACK 42 AUDIO
    TITLE "P1Q_t_0001-0009_42"
    INDEX 01 01:09:10
  TRACK 43 AUDIO
    TITLE "P1Q_t_0001-0009_43"
    INDEX 01 01:10:19
  TRACK 44 AUDIO
    TITLE "P1Q_t_0001-0009_44"
    INDEX 01 01:10:40
  TRACK 45 AUDIO
    TITLE "P1Q_t_0001-0009_45"
    INDEX 01 01:15:71
  TRACK 46 AUDIO
    TITLE "P1Q_t_0001-0009_46"
    INDEX 01 01:16:41
  TRACK 47 AUDIO
    TITLE "P1Q_t_0001-0009_47"
    INDEX 01 01:17:50
  TRACK 48 AUDIO
    TITLE "P1Q_t_0001-0009_48"
    INDEX 01 01:17:70
  TRACK 49 AUDIO
    TITLE "P1Q_t_0001-0009_49"
    INDEX 01 01:20:23
  TRACK 50 AUDIO
    TITLE "P1Q_t_0001-0009_50"
    INDEX 01 01:20:49
  TRACK 51 AUDIO
    TITLE "P1Q_t_0001-0009_51"
    INDEX 01 01:26:10
  TRACK 52 AUDIO
    TITLE "P1Q_t_0001-0009_52"
    INDEX 01 01:26:57
  TRACK 53 AUDIO
    TITLE "P1Q_t_0001-0009_53"
    INDEX 01 01:27:62
  TRACK 54 AUDIO
    TITLE "P1Q_t_0001-0009_54"
    INDEX 01 01:28:09
  TRACK 55 AUDIO
    TITLE "P1Q_t_0001-0009_55"
    INDEX 01 01:31:48
  TRACK 56 AUDIO
    TITLE "P1Q_t_0001-0009_56"
    INDEX 01 01:31:68
  TRACK 57 AUDIO
    TITLE "P1Q_t_0001-0009_57"
    INDEX 01 01:36:14
  TRACK 58 AUDIO
    TITLE "P1Q_t_0001-0009_58"
    INDEX 01 01:36:61
  TRACK 59 AUDIO
    TITLE "P1Q_t_0001-0009_59"
    INDEX 01 01:38:07
  TRACK 60 AUDIO
    TITLE "P1Q_t_0001-0009_60"
    INDEX 01 01:38:29
  TRACK 61 AUDIO
    TITLE "P1Q_t_0001-0009_61"
    INDEX 01 01:41:55
  TRACK 62 AUDIO
    TITLE "P1Q_t_0001-0009_62"
    INDEX 01 01:41:72
  TRACK 63 AUDIO
    TITLE "P1Q_t_0001-0009_63"
    INDEX 01 01:46:18
